<svg width="50" height="50" viewBox="0 0 50 50" fill="none" xmlns="http://www.w3.org/2000/svg">
<path d="M11.6007 6.25C8.98608 6.25 7.05353 8.60117 7.14103 11.1491C7.22437 13.5991 7.11652 16.7729 6.33944 19.3604C5.55819 21.9562 4.23742 22.7062 2.08325 22.9167V27.0833C4.23742 27.2937 5.55819 28.0438 6.33944 30.6396C7.11652 33.2271 7.22437 36.403 7.14103 38.8509C7.05353 41.3988 8.98608 43.75 11.6007 43.75H38.3992C41.0138 43.75 42.9504 41.3988 42.8629 38.8509C42.7795 36.4009 42.8874 33.2271 43.6645 30.6396C44.4457 28.0438 45.7624 27.2937 47.9166 27.0833V22.9167C45.7624 22.7062 44.4477 21.9562 43.6685 19.3604C42.8915 16.7729 42.7795 13.597 42.8629 11.1491C42.9483 8.60117 41.0158 6.25 38.3992 6.25H11.6007ZM11.6007 10.4167H38.3992C38.4096 10.4167 38.4404 10.4151 38.505 10.4818C38.6008 10.5797 38.7065 10.7795 38.7003 11.0107C38.5732 14.767 38.8998 17.9815 39.6768 20.5607C40.2477 22.4565 41.1277 23.9353 42.3339 25.0041C41.1256 26.0728 40.2477 27.5454 39.6768 29.4434C38.9018 32.0225 38.5732 35.235 38.7003 38.9933C38.7086 39.2246 38.6008 39.4223 38.505 39.5223C38.4404 39.5848 38.4117 39.5833 38.3992 39.5833H11.6007C11.5903 39.5833 11.5635 39.5849 11.4989 39.5182C11.4031 39.4203 11.2974 39.2226 11.3036 38.9893C11.4307 35.2309 11.098 32.0185 10.323 29.4393C9.75425 27.5435 8.87625 26.0687 7.67 25C8.87834 23.9312 9.75832 22.4546 10.3271 20.5566C11.1021 17.9775 11.4307 14.765 11.3036 11.0067C11.2953 10.7775 11.4052 10.5797 11.4989 10.4818C11.5635 10.4151 11.5903 10.4167 11.6007 10.4167ZM16.6666 14.6525V35.4167H25.3214C27.5526 35.4167 29.4167 34.8575 30.725 33.8013C32.0646 32.7117 32.7758 31.1375 32.7758 29.2521C32.7758 26.9959 31.5286 25.1746 29.5328 24.3205C30.8849 23.4163 31.7992 21.841 31.7992 20.166C31.7992 18.5202 31.1622 17.1234 29.956 16.1255C28.7914 15.1609 27.1703 14.6525 25.2807 14.6525H16.6666ZM21.0977 18.6483H24.5361C26.4152 18.6483 27.3681 19.3618 27.3681 20.7764C27.3681 22.7055 25.4766 23.112 23.8891 23.112H21.0977V18.6483ZM21.0937 26.7497H24.5076C27.8888 26.7497 28.2795 28.1832 28.2795 29.2603C28.2795 29.8915 28.2804 31.8075 24.6866 31.8075H21.0937V26.7497Z" fill="#6798DE"/>
</svg>
