<svg fill="#FFFFFF" xmlns="http://www.w3.org/2000/svg"  viewBox="0 0 24 24" width="48px" height="48px"><path d="M 2.8515625 1.9960938 L 4.8125 19.882812 L 11.992188 22.074219 L 12.357422 21.962891 L 19.171875 19.882812 L 21.148438 1.9960938 L 2.8515625 1.9960938 z M 5.640625 4.4960938 L 18.357422 4.4960938 L 16.867188 17.972656 L 11.992188 19.460938 L 7.1191406 17.972656 L 5.640625 4.4960938 z M 7.1035156 5.9960938 L 7.1035156 8.4960938 L 8.3535156 8.4960938 L 14.228516 8.4960938 L 14.080078 9.7578125 L 11.992188 9.7578125 L 10.742188 9.7578125 L 10.742188 12.257812 L 11.992188 12.257812 L 13.787109 12.257812 L 13.582031 14.019531 L 11.992188 14.46875 L 10.410156 14.019531 L 10.316406 13.162109 L 10.177734 11.919922 L 7.6933594 12.195312 L 7.8300781 13.4375 L 8.109375 15.966797 L 11.992188 17.066406 L 15.871094 15.96875 L 17.037109 5.9960938 L 8.3535156 5.9960938 L 7.1035156 5.9960938 z"/></svg>