<svg width="50" height="50" viewBox="0 0 50 50" fill="none" xmlns="http://www.w3.org/2000/svg">
<path d="M5.9408 4.15857L10.0261 41.4226L24.9838 45.988L25.7447 45.7561L39.9414 41.4226L44.0593 4.15857H5.9408ZM11.7513 9.3669H38.2447L35.14 37.4431L24.9838 40.5437L14.8316 37.4431L11.7513 9.3669ZM14.799 12.4919V17.7002H17.4032H29.6428L29.3335 20.3288H24.9838H22.3796V25.5371H24.9838H28.7232L28.2959 29.2074L24.9838 30.1433L21.6879 29.2074L21.4926 27.4211L21.2037 24.8332L16.0279 25.4069L16.3127 27.9948L16.8946 33.2642L24.9838 35.5551L33.0648 33.2683L35.494 12.4919H17.4032H14.799Z" fill="#6798DE"/>
</svg>
