<svg width="30" height="46" viewBox="0 0 30 46" fill="none" xmlns="http://www.w3.org/2000/svg">
<path d="M14 0V14H7C3.145 14 0 10.855 0 7C0 3.145 3.145 0 7 0H14ZM14 16V30H7C3.145 30 0 26.855 0 23C0 19.145 3.145 16 7 16H14ZM14 32V39C14 42.855 10.855 46 7 46C3.145 46 0 42.855 0 39C0 35.145 3.145 32 7 32H14ZM30 7C30 10.855 26.855 14 23 14H16V0H23C26.855 0 30 3.145 30 7ZM23 16C21.1435 16 19.363 16.7375 18.0503 18.0503C16.7375 19.363 16 21.1435 16 23C16 24.8565 16.7375 26.637 18.0503 27.9497C19.363 29.2625 21.1435 30 23 30C24.8565 30 26.637 29.2625 27.9497 27.9497C29.2625 26.637 30 24.8565 30 23C30 21.1435 29.2625 19.363 27.9497 18.0503C26.637 16.7375 24.8565 16 23 16Z" fill="#6798DE"/>
</svg>
