<svg width="50" height="50" viewBox="0 0 50 50" fill="none" xmlns="http://www.w3.org/2000/svg">
<path d="M45.2735 2.32422C45.086 2.11719 44.8164 2 44.5352 2H5.46487C5.18362 2 4.91409 2.11719 4.72659 2.32422C4.53518 2.53125 4.44143 2.80859 4.46878 3.08984L7.98831 42.5156C8.02346 42.9297 8.31253 43.2734 8.71097 43.3906L24.7227 47.9609C24.8086 47.9883 24.9024 48 24.9961 48C25.0899 48 25.1797 47.9883 25.2696 47.9609L41.293 43.3906C41.6914 43.2734 41.9766 42.9297 42.0157 42.5156L45.5313 3.08984C45.5586 2.80859 45.4649 2.53125 45.2735 2.32422ZM36.8477 15.918H18.0352L18.4844 21.0078H36.3946L35.0508 36.0508L24.9922 39.0898L24.8946 39.0586L14.9532 36.0469L14.4102 29.918H19.2813L19.4922 32.2969L25.0508 33.4609L30.5078 32.2969L31.0899 25.8594H14.0469L12.7227 11.0547H37.2813L36.8477 15.918Z" fill="#6798DE"/>
</svg>
