<svg width="694" height="50" viewBox="0 0 694 50" fill="none" xmlns="http://www.w3.org/2000/svg">
<path d="M25 5C13.955 5 5 13.955 5 25C5 34.3717 11.4533 42.2133 20.1533 44.3833C20.06 44.1133 20 43.8 20 43.4117V39.9933C19.1883 39.9933 17.8283 39.9933 17.4867 39.9933C16.1183 39.9933 14.9017 39.405 14.3117 38.3117C13.6567 37.0967 13.5433 35.2383 11.92 34.1017C11.4383 33.7233 11.805 33.2917 12.36 33.35C13.385 33.64 14.235 34.3433 15.035 35.3867C15.8317 36.4317 16.2067 36.6683 17.695 36.6683C18.4167 36.6683 19.4967 36.6267 20.5133 36.4667C21.06 35.0783 22.005 33.8 23.16 33.1967C16.5 32.5117 13.3217 29.1983 13.3217 24.7C13.3217 22.7633 14.1467 20.89 15.5483 19.3117C15.0883 17.745 14.51 14.55 15.725 13.3333C18.7217 13.3333 20.5333 15.2767 20.9683 15.8017C22.4617 15.29 24.1017 15 25.825 15C27.5517 15 29.1983 15.29 30.695 15.805C31.125 15.2833 32.9383 13.3333 35.9417 13.3333C37.1617 14.5517 36.5767 17.76 36.1117 19.3233C37.505 20.8983 38.325 22.7667 38.325 24.7C38.325 29.195 35.1517 32.5067 28.5017 33.195C30.3317 34.15 31.6667 36.8333 31.6667 38.855V43.4117C31.6667 43.585 31.6283 43.71 31.6083 43.8583C39.4017 41.1267 45 33.7267 45 25C45 13.955 36.045 5 25 5Z" fill="#6798DE"/>
<path d="M117 2V16H110C106.145 16 103 12.855 103 9C103 5.145 106.145 2 110 2H117ZM117 18V32H110C106.145 32 103 28.855 103 25C103 21.145 106.145 18 110 18H117ZM117 34V41C117 44.855 113.855 48 110 48C106.145 48 103 44.855 103 41C103 37.145 106.145 34 110 34H117ZM133 9C133 12.855 129.855 16 126 16H119V2H126C129.855 2 133 5.145 133 9ZM126 18C124.143 18 122.363 18.7375 121.05 20.0503C119.737 21.363 119 23.1435 119 25C119 26.8565 119.737 28.637 121.05 29.9497C122.363 31.2625 124.143 32 126 32C127.857 32 129.637 31.2625 130.95 29.9497C132.263 28.637 133 26.8565 133 25C133 23.1435 132.263 21.363 130.95 20.0503C129.637 18.7375 127.857 18 126 18Z" fill="#6798DE"/>
<path d="M189.941 4.15857L194.026 41.4226L208.984 45.988L209.745 45.7561L223.941 41.4226L228.059 4.15857H189.941ZM195.751 9.3669H222.245L219.14 37.4431L208.984 40.5437L198.832 37.4431L195.751 9.3669ZM198.799 12.4919V17.7002H201.403H213.643L213.334 20.3288H208.984H206.38V25.5371H208.984H212.723L212.296 29.2074L208.984 30.1433L205.688 29.2074L205.493 27.4211L205.204 24.8332L200.028 25.4069L200.313 27.9948L200.895 33.2642L208.984 35.5551L217.065 33.2683L219.494 12.4919H201.403H198.799Z" fill="#6798DE"/>
<path d="M321.274 2.325C321.084 2.118 320.817 2 320.536 2H281.464C281.183 2 280.916 2.118 280.726 2.325C280.536 2.532 280.443 2.81 280.468 3.089L283.988 42.516C284.025 42.928 284.312 43.275 284.71 43.389L300.72 47.962C300.809 47.987 300.902 48 300.994 48C301.086 48 301.179 47.987 301.268 47.962L317.292 43.389C317.69 43.275 317.977 42.928 318.014 42.516L321.532 3.089C321.557 2.81 321.463 2.532 321.274 2.325ZM288 29.004L295 30.946V11H299V37L288 33.949V29.004ZM314.054 22L313 34.25L303 37V32.399L309.75 30.544L310 26.794L303 28V11H315L314.655 15H307V23L314.054 22Z" fill="#6798DE"/>
<path d="M413.273 2.32422C413.086 2.11719 412.816 2 412.535 2H373.465C373.184 2 372.914 2.11719 372.727 2.32422C372.535 2.53125 372.441 2.80859 372.469 3.08984L375.988 42.5156C376.023 42.9297 376.313 43.2734 376.711 43.3906L392.723 47.9609C392.809 47.9883 392.902 48 392.996 48C393.09 48 393.18 47.9883 393.27 47.9609L409.293 43.3906C409.691 43.2734 409.977 42.9297 410.016 42.5156L413.531 3.08984C413.559 2.80859 413.465 2.53125 413.273 2.32422ZM404.848 15.918H386.035L386.484 21.0078H404.395L403.051 36.0508L392.992 39.0898L392.895 39.0586L382.953 36.0469L382.41 29.918H387.281L387.492 32.2969L393.051 33.4609L398.508 32.2969L399.09 25.8594H382.047L380.723 11.0547H405.281L404.848 15.918Z" fill="#6798DE"/>
<path d="M506.793 22.0898L487.91 3.20703C487.109 2.40234 486.055 2 485 2C483.945 2 482.891 2.40234 482.09 3.20703L478.355 6.94141L482.977 11.5625C484.512 10.6602 486.512 10.8555 487.828 12.1719C489.145 13.4883 489.336 15.4883 488.434 17.0195L492.977 21.5625C494.512 20.6602 496.512 20.8555 497.828 22.1719C499.391 23.7344 499.391 26.2656 497.828 27.8281C496.266 29.3906 493.734 29.3906 492.172 27.8281C490.855 26.5117 490.66 24.5117 491.562 22.9766L487.02 18.4336C486.695 18.625 486.355 18.7656 486 18.8555V31.1406C487.723 31.5859 489 33.1367 489 35C489 37.2109 487.211 39 485 39C482.789 39 481 37.2109 481 35C481 33.1367 482.277 31.5859 484 31.1406V18.8555C483.332 18.6836 482.695 18.3516 482.172 17.8281C480.855 16.5117 480.664 14.5117 481.566 12.9805L476.941 8.35547L463.207 22.0898C461.598 23.6953 461.598 26.3047 463.207 27.9102L482.09 46.793C482.891 47.5977 483.945 48 485 48C486.055 48 487.109 47.5977 487.91 46.793L506.793 27.9102C508.402 26.3047 508.402 23.6953 506.793 22.0898Z" fill="#6798DE"/>
<g clip-path="url(#clip0_87_43)">
<path d="M583.168 8.00005C582.699 7.98833 582.289 8.16801 582.078 8.68755C581.719 9.55864 582.613 10.4102 582.934 10.8555C583.156 11.1641 583.445 11.5118 583.605 11.8594C583.711 12.0899 583.727 12.3204 583.816 12.5625C584.039 13.1602 584.395 13.8399 584.68 14.3946C584.824 14.6758 584.984 14.9688 585.168 15.2188C585.281 15.3711 585.473 15.4415 585.504 15.6758C585.316 15.9415 585.305 16.3516 585.199 16.6875C584.723 18.1915 584.902 20.0625 585.594 21.1719C585.809 21.5157 586.312 22.2461 587 21.9688C587.602 21.7227 587.469 20.961 587.641 20.2852C587.68 20.1368 587.656 20.0235 587.734 19.9219V19.9532C587.914 20.3204 588.098 20.6875 588.281 21.0508C588.691 21.7071 589.414 22.3907 590.023 22.8555C590.34 23.0938 590.59 23.5079 591 23.6485V23.6172H590.969C590.891 23.4922 590.766 23.4415 590.664 23.3438C590.426 23.1094 590.16 22.8165 589.965 22.5469C589.406 21.793 588.914 20.9649 588.469 20.1055C588.254 19.6954 588.066 19.2422 587.887 18.8243C587.816 18.6602 587.816 18.418 587.672 18.3321C587.473 18.6407 587.184 18.8868 587.031 19.25C586.789 19.8282 586.754 20.5352 586.664 21.2657C586.609 21.2852 586.633 21.2696 586.605 21.2969C586.18 21.1915 586.027 20.754 585.871 20.379C585.473 19.4297 585.395 17.8985 585.75 16.8086C585.84 16.5235 586.25 15.6329 586.086 15.3711C586.008 15.1094 585.742 14.961 585.598 14.7618C585.414 14.5157 585.234 14.1915 585.109 13.9063C584.781 13.1641 584.473 12.3047 584.125 11.5547C583.961 11.1954 583.684 10.836 583.453 10.5157C583.199 10.1641 582.918 9.9063 582.719 9.47661C582.652 9.32817 582.555 9.08598 582.66 8.92973C582.691 8.82427 582.738 8.7813 582.844 8.74614C583.02 8.60942 583.512 8.78911 583.699 8.86723C584.188 9.07036 584.598 9.26567 585.012 9.53911C585.211 9.67192 585.41 9.92583 585.652 10H585.926C586.359 10.0977 586.84 10.0274 587.238 10.1524C587.949 10.3672 588.586 10.7032 589.16 11.0665C590.922 12.1758 592.363 13.7579 593.344 15.6446C593.504 15.9493 593.574 16.2422 593.715 16.5625C593.992 17.211 594.348 17.8829 594.629 18.5157C594.906 19.1524 595.18 19.7891 595.574 20.3165C595.781 20.5938 596.586 20.7461 596.949 20.8985C597.203 21.0079 597.625 21.1211 597.863 21.2657C598.328 21.543 598.773 21.875 599.207 22.1836C599.426 22.336 600.09 22.668 600.125 22.9454C599.051 22.918 598.23 23.0157 597.531 23.3125C597.332 23.3985 597.012 23.3985 596.98 23.6485C597.086 23.7618 597.105 23.9336 597.191 24.0743C597.359 24.3438 597.641 24.7071 597.895 24.8985C598.172 25.1055 598.453 25.3282 598.75 25.5118C599.273 25.8282 599.859 26.0118 600.367 26.3321C600.664 26.5235 600.965 26.7618 601.254 26.9727C601.398 27.0821 601.492 27.2461 601.68 27.3125V27.2813C601.582 27.1563 601.559 26.9844 601.469 26.8555L601.066 26.4532C600.68 25.9415 600.188 25.4883 599.664 25.1133C599.246 24.8125 598.312 24.4063 598.141 23.9219L598.109 23.8907C598.402 23.8594 598.75 23.75 599.023 23.6758C599.484 23.5547 599.891 23.586 600.363 23.4649C600.578 23.4024 600.793 23.3399 601.008 23.2813V23.1563C600.77 22.9141 600.598 22.586 600.336 22.3633C599.652 21.7813 598.906 21.1993 598.137 20.7149C597.711 20.4454 597.184 20.2696 596.734 20.043C596.582 19.9649 596.316 19.9258 596.215 19.7969C595.977 19.4961 595.848 19.1133 595.664 18.7618C595.281 18.0235 594.906 17.2188 594.566 16.4415C594.336 15.9141 594.184 15.3907 593.895 14.9141C592.508 12.6368 591.016 11.2579 588.703 9.9063C588.211 9.61723 587.621 9.50786 586.996 9.35942C586.656 9.33598 586.324 9.31645 585.984 9.29692C585.781 9.21098 585.566 8.96098 585.375 8.83598C584.895 8.5352 583.949 8.01176 583.168 8.00005ZM586.477 11.3125C586.254 11.3086 586.094 11.3399 585.926 11.375V11.4063H585.957C586.062 11.625 586.254 11.7657 586.387 11.9532C586.488 12.168 586.586 12.3829 586.688 12.5977L586.719 12.5665C586.906 12.4336 586.996 12.2188 586.996 11.8946C586.918 11.8165 586.906 11.7149 586.844 11.6211C586.754 11.4922 586.586 11.4219 586.477 11.3125ZM553.867 23.9961C553.566 24.0079 553.238 24.0665 552.883 24.1797C552.289 24.3594 551.996 24.7149 551.996 25.4375V33H554V25.6211L556.777 31.9297C557.121 32.7149 557.59 32.9961 558.508 32.9961C559.43 32.9961 559.879 32.7149 560.223 31.9297L563 25.7813V33H565V25.4375C565 24.7149 564.711 24.3594 564.113 24.1797C562.691 23.7305 561.734 24.1172 561.305 25.0899L558.453 31.504L555.695 25.0899C555.383 24.3594 554.758 23.961 553.867 23.9961ZM578.246 24C577.457 24 575 24.0938 575 26V27.2344C575 28.1094 575.77 28.8243 577.438 29C577.625 29.0118 577.812 29.0274 578 29.0274C578 29.0274 579.945 28.9883 580 29C581.125 29 581 29.875 581 30V31C581 31.1368 580.969 32 579.988 32H575V33H580.008C580.664 33 581.301 32.8633 581.809 32.625C582.652 32.2383 583 31.7149 583 31.0274V29.5977C583 28.0625 581.094 28 580 28H578C577.215 28 577.094 27.5235 577 27V26C577.094 25.6016 577.27 25.0625 577.965 25H583V24H578.246ZM585.98 24C584.504 24.2032 583.984 24.9375 583.984 26V31C583.984 31.9727 584.527 32.5586 585.645 32.8633C586.02 32.9688 586.359 33.0118 586.68 33.0118L588.906 33H590.215L591.328 34H593.578L592.031 32.6055C592.758 32.3047 592.984 31.8438 592.984 30.9805V26C592.984 24.9375 592.293 24.2032 590.816 24H585.98ZM594 24V30.9571C594 32.1641 594.684 32.8438 596.492 32.9805C596.66 32.9883 596.832 33 597 33H602V32H597.379C596.348 32 596 31.5665 596 30.9493V24H594ZM587.172 25H589.746C590.426 25 590.883 25.5469 590.984 26C590.984 26 591 30.6563 591 31C591 31.3438 590.809 31.5 590.809 31.5L590.266 31H588L589.113 32H587.172C586.477 32 586.086 31.4844 585.984 31V26.1016C585.984 25.5704 586.391 25 587.172 25ZM566 27C566.039 27.0391 566 31.2618 566 31.3438C566.016 32.2188 567.125 32.9844 568.863 33H572V33.0665C572 33.254 572.137 33.879 571 34C570.988 34 566.012 34 566 34V35H571.215C572.098 34.9727 574.012 34.7735 574 33.2422C574 33.2149 574.008 27 574 27H572V32C571.969 32 569.523 32.0079 569.031 32C568.066 31.9844 567.984 31.4336 568 31.2227V27H566Z" fill="#6798DE"/>
</g>
<path d="M672.188 0C674.938 6.36328 662.328 10.293 661.156 15.5938C660.082 20.4648 668.648 26.125 668.656 26.125C667.355 24.1094 666.398 22.4492 665.094 19.3125C662.887 14.0078 678.535 9.20703 672.188 0ZM680.562 8.8125C680.562 8.8125 669.5 9.52344 668.938 16.5938C668.688 19.7422 671.848 21.3984 671.938 23.6875C672.012 25.5586 670.062 27.125 670.062 27.125C670.062 27.125 673.609 26.4492 674.719 23.5938C675.949 20.4258 672.32 18.2852 672.688 15.75C673.039 13.3242 680.562 8.8125 680.562 8.8125ZM663.188 25.1562C663.188 25.1562 653.062 25.0117 653.062 27.875C653.062 30.8672 666.316 31.0898 675.781 29.25C675.781 29.25 678.297 27.5195 678.969 26.875C672.766 28.1406 658.625 28.2812 658.625 27.1875C658.625 26.1797 663.188 25.1562 663.188 25.1562ZM682.656 25.1562C681.664 25.2344 680.594 25.6172 679.625 26.3125C681.906 25.8203 683.844 27.2344 683.844 28.8438C683.844 32.4688 678.594 35.875 678.594 35.875C678.594 35.875 686.719 34.9531 686.719 29C686.719 26.2969 684.84 24.9844 682.656 25.1562ZM660.75 30.7188C659.195 30.7188 656.875 31.9375 656.875 33.0938C656.875 35.418 668.562 37.207 677.219 33.8125L674.219 31.9688C668.352 33.8477 657.547 33.2344 660.75 30.7188ZM662.188 35.9375C660.059 35.9375 658.656 37.2227 658.656 38.1875C658.656 41.1719 671.371 41.4727 676.406 38.4375L673.219 36.4062C669.457 37.9961 660.016 38.2383 662.188 35.9375ZM655.094 38.625C651.625 38.5547 649.375 40.1133 649.375 41.4062C649.375 48.2812 684.875 47.9648 684.875 40.9375C684.875 39.7695 683.527 39.2031 683.031 38.9375C685.934 45.6562 653.969 45.1211 653.969 41.1562C653.969 40.2539 656.32 39.3906 658.5 39.8125L656.656 38.75C656.113 38.668 655.59 38.6367 655.094 38.625ZM688.625 43.25C683.227 48.3672 669.547 50.2227 655.781 47.0625C669.543 52.6953 688.559 49.5352 688.625 43.25Z" fill="#6798DE"/>
<defs>
<clipPath id="clip0_87_43">
<rect width="50" height="50" fill="white" transform="translate(552)"/>
</clipPath>
</defs>
</svg>
