<svg width="35" height="35" viewBox="0 0 35 35" fill="none" xmlns="http://www.w3.org/2000/svg">
<rect x="13.3428" y="29.4131" width="8.59677" height="5.08696" stroke="#2D93D3"/>
<path d="M6.0686 9.13044C7.69159 4.49606 11.3367 2.48419 15.5 2M19.5 2C24.6512 2.41502 27.4497 5.39527 29.0021 9.13044M14.748 26.838L9.17344 19.6443C12.1372 17.085 16.4416 8.9921 17.5001 6.22531C17.8529 6.84783 21.9456 16.3933 25.9678 19.6443C23.7097 23.2411 21.5693 25.8465 20.9577 26.838H14.748Z" stroke="#2D93D3"/>
<path d="M17.6409 17.2391C18.6213 17.2391 19.3997 18.0161 19.3997 18.953C19.3994 19.8898 18.6211 20.6659 17.6409 20.6659C16.6607 20.6658 15.8833 19.8897 15.8831 18.953C15.8831 18.0161 16.6606 17.2393 17.6409 17.2391Z" stroke="#2D93D3"/>
<rect x="4.45166" y="9.49207" width="3.51613" height="3.1502" stroke="#2D93D3"/>
<rect x="27.1733" y="9.49207" width="3.51613" height="3.1502" stroke="#2D93D3"/>
<rect x="15.7419" y="0.638306" width="3.51613" height="3.1502" stroke="#2D93D3"/>
<rect x="11.6492" y="25.2628" width="11.5605" height="3.70356" fill="#121723" stroke="#2D93D3"/>
<line x1="17.2822" y1="17.1542" x2="17.2822" y2="6.77868" stroke="#2D93D3"/>
</svg>
